<svg width="192" height="168" viewBox="0 0 192 168" fill="none" xmlns="http://www.w3.org/2000/svg">
<path opacity="0.3" d="M95.5519 0.579366C70.3716 0.474427 46.1767 10.3597 28.2719 28.068C10.3672 45.7763 0.213809 69.8627 0.0367211 95.0469C0.0185389 107.47 2.48103 119.771 7.27982 131.229C12.0786 142.687 19.1169 153.071 27.982 161.773C31.7364 165.462 36.7895 167.53 42.0532 167.53C47.3168 167.53 52.3699 165.462 56.1244 161.773C57.9718 159.954 59.4391 157.786 60.4406 155.395C61.4421 153.004 61.9576 150.438 61.9576 147.845C61.9576 145.253 61.4421 142.686 60.4406 140.295C59.4391 137.904 57.9718 135.736 56.1244 133.918C50.9586 128.836 46.8558 122.777 44.0553 116.093C41.2548 109.409 39.8126 102.235 39.8126 94.9878C39.8126 87.7408 41.2548 80.5663 44.0553 73.8825C46.8558 67.1986 50.9586 61.1392 56.1244 56.0574C66.6249 45.7249 80.7651 39.9342 95.4956 39.9342C110.226 39.9342 124.366 45.7249 134.867 56.0574C140.033 61.1392 144.135 67.1986 146.936 73.8825C149.736 80.5663 151.179 87.7408 151.179 94.9878C151.179 102.235 149.736 109.409 146.936 116.093C144.135 122.777 140.033 128.836 134.867 133.918C133.02 135.736 131.552 137.903 130.551 140.294C129.549 142.685 129.034 145.251 129.034 147.843C129.034 150.434 129.549 153.001 130.551 155.391C131.552 157.782 133.02 159.949 134.867 161.767C138.621 165.457 143.674 167.524 148.938 167.524C154.202 167.524 159.255 165.457 163.009 161.767C171.896 153.077 178.957 142.698 183.777 131.241C188.598 119.783 191.079 107.477 191.078 95.0469C190.901 69.8608 180.746 45.7727 162.839 28.064C144.932 10.3554 120.734 0.471439 95.5519 0.579366Z" fill="url(#paint0_linear_207_172)"/>
<defs>
<linearGradient id="paint0_linear_207_172" x1="165.317" y1="177.71" x2="44.5974" y2="52.9729" gradientUnits="userSpaceOnUse">
<stop stop-color="white"/>
<stop offset="1" stop-color="white" stop-opacity="0"/>
</linearGradient>
</defs>
</svg>
